<svg width="22" height="15" viewBox="0 0 22 15" fill="none" xmlns="http://www.w3.org/2000/svg">
<path d="M7.09641 15C6.96188 15 6.83857 14.9776 6.72646 14.9327C6.61435 14.8879 6.50224 14.8094 6.39014 14.6973L0.30269 8.60987C0.100897 8.40807 0 8.16144 0 7.86996C0 7.57848 0.100897 7.33184 0.30269 7.13004C0.504484 6.92825 0.73991 6.82735 1.00897 6.82735C1.27803 6.82735 1.51345 6.92825 1.71525 7.13004L7.09641 12.5112L19.3049 0.30269C19.5067 0.100897 19.7478 0 20.028 0C20.3083 0 20.5493 0.100897 20.7511 0.30269C20.9529 0.504484 21.0538 0.745515 21.0538 1.02578C21.0538 1.30605 20.9529 1.54708 20.7511 1.74888L7.80269 14.6973C7.69058 14.8094 7.57848 14.8879 7.46637 14.9327C7.35426 14.9776 7.23094 15 7.09641 15Z" fill="#00E878"/>
</svg>
