<svg width="24" height="24" viewBox="0 0 24 24" fill="none" xmlns="http://www.w3.org/2000/svg">
<path d="M10.9682 23.6494L0.343949 12.8182C0.21656 12.6883 0.127389 12.5584 0.0764334 12.4286C0.025478 12.2987 0 12.1558 0 12C0 11.8442 0.025478 11.7013 0.0764334 11.5714C0.127389 11.4416 0.21656 11.3117 0.343949 11.1818L11.0064 0.311688C11.2102 0.103896 11.465 0 11.7707 0C12.0764 0 12.3439 0.116883 12.5732 0.350649C12.8025 0.584415 12.9172 0.857143 12.9172 1.16883C12.9172 1.48052 12.8025 1.75325 12.5732 1.98701L3.89809 10.8312H22.8535C23.1847 10.8312 23.4586 10.9416 23.6752 11.1623C23.8917 11.3831 24 11.6623 24 12C24 12.3377 23.8917 12.6169 23.6752 12.8377C23.4586 13.0584 23.1847 13.1688 22.8535 13.1688H3.89809L12.6115 22.0519C12.8153 22.2597 12.9172 22.5195 12.9172 22.8312C12.9172 23.1429 12.8025 23.4156 12.5732 23.6494C12.3439 23.8831 12.0764 24 11.7707 24C11.465 24 11.1975 23.8831 10.9682 23.6494Z" fill="black"/>
</svg>
