<svg width="122" height="122" viewBox="0 0 122 122" fill="none" xmlns="http://www.w3.org/2000/svg">
<path fill-rule="evenodd" clip-rule="evenodd" d="M57.3065 0.601343C70.9298 1.90217 82.5743 8.69367 93.5391 16.119C104.346 23.4373 115.475 31.286 119.727 42.8727C123.993 54.4961 121.887 67.3692 116.465 78.5918C111.384 89.1101 100.62 95.6151 90.7565 102.841C80.2548 110.535 70.7911 121.096 57.3065 121.932C43.5388 122.786 30.7307 115.427 20.3488 107.206C10.6315 99.5119 4.53507 88.9681 1.37429 77.6439C-1.62232 66.908 0.902703 56.174 3.0626 45.275C5.61009 32.4201 4.37416 17.4186 15.0521 8.62465C25.959 -0.357988 42.635 -0.799574 57.3065 0.601343Z" fill="white" fill-opacity="0.32"/>
</svg>
