<svg width="115" height="115" viewBox="0 0 115 115" fill="none" xmlns="http://www.w3.org/2000/svg">
<path fill-rule="evenodd" clip-rule="evenodd" d="M54.0184 0.566839C66.8601 1.79303 77.8364 8.19485 88.1721 15.1942C98.3586 22.0925 108.849 29.4909 112.857 40.4128C116.878 51.3693 114.893 63.5038 109.783 74.0824C104.993 83.9972 94.8463 90.129 85.5492 96.9401C75.65 104.192 66.7293 114.148 54.0184 114.936C41.0406 115.741 28.9675 108.804 19.1812 101.055C10.0215 93.8022 4.27486 83.8633 1.29544 73.1889C-1.52924 63.069 0.850908 52.9509 2.88688 42.6772C5.2882 30.5599 4.12318 16.4192 14.1884 8.12979C24.4696 -0.337448 40.1888 -0.753697 54.0184 0.566839Z" fill="white" fill-opacity="0.32"/>
</svg>
